<?xml version="1.0" encoding="UTF-8" standalone="no"?>
<svg
   xmlns:dc="http://purl.org/dc/elements/1.1/"
   xmlns:cc="http://creativecommons.org/ns#"
   xmlns:rdf="http://www.w3.org/1999/02/22-rdf-syntax-ns#"
   xmlns:svg="http://www.w3.org/2000/svg"
   xmlns="http://www.w3.org/2000/svg"
   xmlns:sodipodi="http://sodipodi.sourceforge.net/DTD/sodipodi-0.dtd"
   xmlns:inkscape="http://www.inkscape.org/namespaces/inkscape"
   inkscape:version="1.0beta1 (32d4812, 2019-09-19)"
   inkscape:export-ydpi="577.99115"
   inkscape:export-xdpi="577.99115"
   inkscape:export-filename="/Users/faisalm/vaion-logo-1024x1024.png"
   sodipodi:docname="vaion-logo-white.svg"
   id="svg881"
   version="1.1"
   viewBox="0 0 170.07874 170.07874"
   height="45mm"
   width="45mm">
  <metadata
     id="metadata887">
    <rdf:RDF>
      <cc:Work
         rdf:about="">
        <dc:format>image/svg+xml</dc:format>
        <dc:type
           rdf:resource="http://purl.org/dc/dcmitype/StillImage" />
        <dc:title></dc:title>
      </cc:Work>
    </rdf:RDF>
  </metadata>
  <defs
     id="defs885" />
  <sodipodi:namedview
     units="mm"
     inkscape:current-layer="svg881"
     inkscape:window-maximized="0"
     inkscape:window-y="23"
     inkscape:window-x="0"
     inkscape:cy="264.45984"
     inkscape:cx="371.00033"
     inkscape:zoom="0.79311236"
     fit-margin-bottom="0"
     fit-margin-right="0"
     fit-margin-left="0"
     fit-margin-top="0"
     inkscape:pagecheckerboard="false"
     showgrid="false"
     id="namedview883"
     inkscape:window-height="1107"
     inkscape:window-width="1600"
     inkscape:pageshadow="2"
     inkscape:pageopacity="0"
     guidetolerance="10"
     gridtolerance="10"
     objecttolerance="10"
     borderopacity="1"
     inkscape:document-rotation="0"
     bordercolor="#666666"
     pagecolor="#000000" />
  <path
     inkscape:export-ydpi="498.93896"
     inkscape:export-xdpi="498.93896"
     inkscape:connector-curvature="0"
     id="path879"
     fill-rule="evenodd"
     fill="#FFF"
     d="m 84.797988,94.957757 v -23.089 h 6.023 v 23.089 z m 27.178002,-5.694 h 0.146 c 0,0 3.947,-0.015 5.122,-0.114 1.296,-0.11 2.118,-0.461 2.85,-1.386 0.58,-0.734 0.768,-2.194 0.757,-4.265 v -0.3 c 0.01,-2.07 -0.202,-3.594 -0.757,-4.346 -0.681,-0.925 -1.68,-1.18 -2.85,-1.304 -1.172,-0.123 -5.122,-0.114 -5.122,-0.114 h -0.146 c 0,0 -3.95,-0.01 -5.121,0.114 -1.172,0.123 -2.17,0.38 -2.851,1.304 -0.555,0.752 -0.767,2.276 -0.757,4.347 v 0.299 c -0.01,2.07 0.176,3.531 0.757,4.265 0.733,0.925 1.554,1.277 2.85,1.386 1.175,0.099 5.122,0.114 5.122,0.114 z m 0.196,5.508 h -0.246 c 0,0 -7.046,0.019 -9.136,-0.217 -2.09,-0.234 -3.983002,-1.23 -5.001002,-2.64 -1.017,-1.411 -1.453,-4.179 -1.434,-8.122 v -0.887 c -0.019,-3.943 0.417,-6.71 1.434,-8.122 1.018,-1.41 2.912002,-2.406 5.001002,-2.64 2.09,-0.236 9.136,-0.218 9.136,-0.218 h 0.246 c 0,0 7.046,-0.018 9.135,0.218 2.09,0.234 3.985,1.23 5.002,2.64 1.017,1.411 1.453,4.179 1.435,8.122 v 0.887 c 0.018,3.943 -0.418,6.71 -1.435,8.122 -1.017,1.41 -2.912,2.406 -5.002,2.64 -2.09,0.236 -9.135,0.217 -9.135,0.217 z m -41.870002,-5.523 v -11.602 c -4.86,-0.123 -8.303,-0.113 -8.303,-0.113 h -0.147 c 0,0 -3.95,-0.01 -5.121,0.113 -1.172,0.124 -2.17,0.38 -2.85,1.304 -0.555,0.753 -0.768,2.277 -0.758,4.347 v 0.3 c -0.01,2.07 0.177,3.53 0.757,4.264 0.733,0.926 1.554,1.277 2.851,1.387 1.174,0.099 5.12,0.114 5.12,0.114 h 0.148 c 0,0 3.44,-0.015 8.304,-0.114 z m 6.673,5.445 -14.927,0.178 h -0.245 c 0,0 -7.046,0.018 -9.136,-0.218 -2.09,-0.235 -3.984,-1.23 -5.002,-2.64 -1.017,-1.411 -1.453,-4.18 -1.434,-8.123 v -0.886 c -0.019,-3.943 0.417,-6.711 1.434,-8.122 1.018,-1.411 2.912,-2.406 5.002,-2.641 2.09,-0.235 9.136,-0.217 9.136,-0.217 h 0.245 l 14.928,0.177 v 22.492 z m 84.416002,-19.823 c 1.018,1.41 1.453,4.178 1.434,8.122 l -0.083,11.66 -6.807,-0.052 v -11.106 c 0.01,-2.031 -0.184,-3.457 -0.743,-4.185 -0.56,-0.727 -1.47,-1.239 -2.798,-1.36 -0.719,-0.066 -2.749,-0.101 -3.985,-0.109 h -8.264 v 16.802 h -6.857 v -22.492 l 0.9,-0.013 v -0.019 h 1.787 c 4.41,-0.05 10.947,-0.105 10.947,-0.105 h 0.248 c 0,0 7.003,0 9.135,0.216 2.093,0.213 4.069,1.23 5.086,2.642 z m -133.917002,14.173 c 0,0 1.169,-0.014 2.1,-0.601 1.087,-0.683 1.808,-2.795 1.808,-2.795 l 4.726,-13.391 h 7.52 l -6.023,16.322 c 0,0 -1.194,3.08 -2.648,4.376 -1.454,1.296 -3.166,1.99 -7.77,1.943 h -1.917 c -4.604,0.048 -6.317,-0.647 -7.77,-1.943 -1.455,-1.296 -2.648,-4.376 -2.648,-4.376 l -6.0260002,-16.322 h 7.5200002 l 4.727,13.39 c 0,0 0.715,2.122 1.807,2.796 0.916,0.565 2.1,0.6 2.1,0.6 0,0 1.226,0.102 2.494,0 z" />
</svg>
